PathFileType	4	(X/Y/Z)	s02c0403.trc
DataRate	CameraRate	NumFrames	NumMarkers	Units	OrigDataRate	OrigDataStartFrame	OrigNumFrames
200	200	5	51	mm	200	250	2000
Frame#	Time	racr			lacr			c7			jug			rlel			rdr			llel			ldr			s2			lic			ric			lasi			rasi			rpsi			lpsi			rgt			lgt			rth1			rth2			rth3			rth4			rlfc			rmfc			rsh1			rsh2			rsh3			rsh4			rlmal			rmmal			rcal			rtoe			rmt5			rmt1			lth1			lth2			lth4			lth3			llfc			lmfc			lsh1			lsh2			lsh3			lsh4			llmal			lmmal			lcal			ltoe			lmt5			SBIKE			LBIKE			RBIKE			
		X1	Y1	Z1	X2	Y2	Z2	X3	Y3	Z3	X4	Y4	Z4	X5	Y5	Z5	X6	Y6	Z6	X7	Y7	Z7	X8	Y8	Z8	X9	Y9	Z9	X10	Y10	Z10	X11	Y11	Z11	X12	Y12	Z12	X13	Y13	Z13	X14	Y14	Z14	X15	Y15	Z15	X16	Y16	Z16	X17	Y17	Z17	X18	Y18	Z18	X19	Y19	Z19	X20	Y20	Z20	X21	Y21	Z21	X22	Y22	Z22	X23	Y23	Z23	X24	Y24	Z24	X25	Y25	Z25	X26	Y26	Z26	X27	Y27	Z27	X28	Y28	Z28	X29	Y29	Z29	X30	Y30	Z30	X31	Y31	Z31	X32	Y32	Z32	X33	Y33	Z33	X34	Y34	Z34	X35	Y35	Z35	X36	Y36	Z36	X37	Y37	Z37	X38	Y38	Z38	X39	Y39	Z39	X40	Y40	Z40	X41	Y41	Z41	X42	Y42	Z42	X43	Y43	Z43	X44	Y44	Z44	X45	Y45	Z45	X46	Y46	Z46	X47	Y47	Z47	X48	Y48	Z48	X49	Y49	Z49	X50	Y50	Z50	X51	Y51	Z51	
250	1.2500	457.601373	1315.865173	-150.176827	464.868196	1320.548073	-501.191059	453.449246	1375.369309	-333.010865	434.122896	1238.993378	-324.999192	582.702622	1071.784867	-136.925512	715.253258	886.230830	-139.334313	563.258265	1061.323121	-535.425640	698.421599	878.877609	-510.020615	-7.957365	1104.253574	-325.585544	129.663573	1092.631084	-468.245530	118.949191	1108.764903	-183.945082	180.319518	1063.160441	-441.769144	173.190583	1092.138690	-217.275498	6.013623	1124.612664	-291.174865	12.875188	1127.168371	-374.542621	101.902545	1031.921887	-140.661580	83.907675	998.711542	-498.433659	192.065845	1012.502734	-139.305482	279.273836	1003.626029	-150.281754	352.630923	965.189524	-127.449611	287.507657	1025.390742	-180.352303	475.933971	879.050054	-161.301386	468.052535	857.502762	-272.434353	457.652096	767.464189	-143.416342	437.809505	680.870270	-160.919613	386.185142	613.364043	-151.621468	451.949963	676.876205	-197.011880	325.965871	508.778374	-154.986451	332.941472	528.551777	-236.050251	250.282307	459.755689	-196.366054	535.210266	450.767893	-195.360056	427.512429	434.514510	-135.856198	453.114185	448.453291	-244.134889	188.446287	904.396476	-516.429070	256.443103	849.854407	-515.925906	283.972879	869.743435	-502.781754	287.178339	766.057329	-515.549575	341.618969	679.803537	-493.975769	349.487973	650.696241	-390.208465	291.395357	587.402028	-511.282569	261.976762	507.693667	-493.857803	193.191038	449.513627	-493.339963	281.583737	498.668588	-458.739542	123.114234	375.303145	-473.061362	141.060442	363.257777	-398.402354	46.618986	367.660247	-431.053626	262.468982	179.310692	-445.475375	163.510258	228.047224	-503.778599	-129.156246	869.435193	-314.344026	32.802871	82.178832	-515.181433	32.897191	82.373171	-115.113805	
251	1.2550	457.580669	1315.827589	-150.160317	464.835429	1320.530858	-501.236049	453.479273	1375.365621	-333.028856	434.144768	1239.026791	-325.018303	582.697721	1071.763471	-136.884947	715.252665	886.215094	-139.318087	563.262567	1061.311802	-535.436327	698.421599	878.877609	-510.020615	-7.995784	1104.327907	-325.527074	129.609713	1092.692776	-468.210110	118.975808	1108.771425	-183.968331	180.264374	1063.189012	-441.827777	173.183884	1092.149120	-217.298629	5.698794	1124.814109	-291.082253	12.825590	1127.239057	-374.482254	101.906193	1031.945987	-140.640400	83.804159	998.770225	-498.437646	192.063666	1012.499061	-139.306868	279.265670	1003.610377	-150.255354	352.616292	965.128205	-127.447089	287.499845	1025.374992	-180.337869	475.902335	879.012234	-161.321068	468.014053	857.480132	-272.462433	457.593411	767.440700	-143.437435	437.767072	680.863090	-160.931748	386.102585	613.396065	-151.668571	451.882196	676.823011	-197.045485	325.856814	508.784617	-154.999192	332.849951	528.542635	-236.078290	250.204904	459.709623	-196.345568	535.143472	450.856859	-195.370315	427.454984	434.524269	-135.868175	453.024163	448.485980	-244.138137	188.370960	904.475990	-516.430907	256.390676	849.988641	-515.908979	283.925597	869.877253	-502.748570	287.189998	766.219111	-515.515205	341.645023	679.934897	-493.974296	349.520819	650.817765	-390.215545	291.488802	587.504188	-511.269258	262.119701	507.784022	-493.869786	193.376268	449.549299	-493.370081	281.771000	498.786212	-458.768030	123.342438	375.292846	-473.096659	141.278645	363.270160	-398.421791	46.891329	367.721801	-431.042558	262.500705	179.128223	-445.472195	163.585356	227.985265	-503.798207	-129.148727	869.426038	-314.292041	32.816493	82.185070	-515.178000	32.327544	82.778754	-115.168059	
252	1.2600	457.579624	1315.812289	-150.150416	464.822168	1320.525005	-501.294576	453.510292	1375.351909	-333.048604	434.140928	1239.043890	-325.031991	582.711511	1071.760528	-136.856948	715.244534	886.209339	-139.305350	563.221965	1061.287085	-535.473253	698.427405	878.895761	-510.069585	-8.063491	1104.444348	-325.469370	129.532418	1092.746490	-468.209764	119.023843	1108.801432	-183.956233	180.210851	1063.228909	-441.889661	173.206002	1092.138473	-217.405841	2.650987	1125.915281	-289.183939	12.382227	1127.057072	-375.430290	101.898599	1031.976932	-140.633005	83.705293	998.851922	-498.426388	192.038135	1012.487503	-139.294727	279.232678	1003.604760	-150.255619	352.577437	965.105495	-127.447644	287.468181	1025.373993	-180.325716	475.848420	878.976890	-161.358769	467.942101	857.474503	-272.486306	457.551669	767.411202	-143.447149	437.673227	680.858980	-160.963990	386.035109	613.390303	-151.686484	451.820249	676.812524	-197.059072	325.771069	508.748191	-154.997712	332.725160	528.533845	-236.085873	250.125484	459.659549	-196.344870	535.061563	450.945144	-195.378057	427.389920	434.573122	-135.865133	452.971239	448.534542	-244.107378	188.327119	904.575059	-516.400062	256.395010	850.167754	-515.874902	283.898100	870.042832	-502.675470	287.258776	766.412066	-515.475296	341.682107	680.087214	-493.999794	349.590379	650.976278	-390.229837	291.588500	587.615143	-511.277590	262.273247	507.872646	-493.858528	193.574935	449.587885	-493.379676	281.948369	498.911390	-458.776170	123.592022	375.273832	-473.141408	141.586441	363.187871	-398.464292	47.175682	367.800615	-431.032925	262.526826	178.948124	-445.481500	163.719782	227.976398	-503.885631	-129.146291	869.432383	-314.299835	32.798705	82.184916	-515.174488	32.883374	82.365436	-115.106191	
253	1.2650	457.561789	1315.808591	-150.169612	464.807015	1320.540450	-501.346273	453.528496	1375.357916	-333.075209	434.160163	1239.073082	-325.059620	582.714844	1071.757076	-136.831358	715.246942	886.223824	-139.288109	563.192119	1061.277331	-535.501482	698.425329	878.909733	-510.062754	-8.129363	1104.542514	-325.377624	129.475216	1092.811669	-468.195768	119.050511	1108.804598	-183.986948	180.158275	1063.283562	-441.953291	173.201731	1092.141678	-217.446574	2.658412	1126.009712	-289.115926	12.353082	1127.114067	-375.372276	101.867097	1032.007251	-140.597763	83.623148	998.932439	-498.410107	191.985692	1012.491950	-139.310564	279.205225	1003.605440	-150.247057	352.557710	965.107834	-127.452659	287.451440	1025.375750	-180.334773	475.800794	878.960402	-161.382029	467.894886	857.450398	-272.500778	457.466975	767.420870	-143.451597	437.624390	680.851406	-160.972084	385.942149	613.374649	-151.697351	451.732870	676.821903	-197.106070	325.711145	508.716482	-155.034994	332.661481	528.574847	-236.109743	250.030360	459.621647	-196.341070	534.992077	451.043896	-195.382117	427.358223	434.593004	-135.878132	452.902294	448.561153	-244.125926	188.314083	904.709434	-516.373281	256.408726	850.350193	-515.807423	283.892182	870.238658	-502.612968	287.337171	766.640367	-515.449402	341.718373	680.247840	-494.031793	349.638512	651.144247	-390.244603	291.680387	587.747828	-511.293113	262.425639	507.961095	-493.853730	193.783517	449.644609	-493.425244	282.112107	499.013729	-458.804148	123.856096	375.266784	-473.174538	141.907546	363.154758	-398.538718	47.471069	367.880083	-431.051502	262.554018	178.736026	-445.440681	163.823692	227.900598	-503.892372	-129.142913	869.425294	-314.300874	32.804199	82.190989	-515.180995	32.882916	82.378818	-115.117345	
254	1.2700	457.551335	1315.818898	-150.192909	464.770973	1320.536007	-501.381818	453.552922	1375.344843	-333.091457	434.189108	1239.092286	-325.129093	582.715772	1071.749398	-136.829822	715.253860	886.235979	-139.257291	563.179621	1061.291468	-535.563812	698.417938	878.916667	-510.013794	-8.172191	1104.608706	-325.284867	129.399422	1092.878350	-468.177200	119.071168	1108.811135	-183.993527	180.105027	1063.350083	-442.013534	173.197328	1092.160016	-217.502706	2.666439	1126.086304	-289.049970	12.351660	1127.195619	-375.296970	101.849480	1032.014700	-140.567687	83.565079	999.068726	-498.388295	191.954334	1012.502976	-139.298345	279.153168	1003.614026	-150.256980	352.497871	965.109404	-127.469637	287.371216	1025.378477	-180.344604	475.754449	878.975075	-161.416284	467.809534	857.447055	-272.521319	457.382802	767.415627	-143.480571	437.556815	680.849924	-160.951836	385.839876	613.363295	-151.712462	451.641141	676.827599	-197.140807	325.654840	508.700966	-155.077522	332.569465	528.574511	-236.120958	249.992676	459.560151	-196.348847	534.933472	451.127467	-195.384115	427.296072	434.609955	-135.880254	452.851581	448.620727	-244.125506	188.324786	904.858959	-516.315271	256.433288	850.562738	-515.752981	283.902931	870.456062	-502.546513	287.398850	766.890621	-515.433373	341.763739	680.415029	-494.052449	349.720872	651.253287	-390.285425	291.784947	587.855137	-511.321691	262.561491	508.070647	-493.891660	193.964143	449.716193	-493.471060	282.253280	499.097810	-458.837031	124.082367	375.245034	-473.218057	142.161368	363.083165	-398.590640	47.732153	367.965870	-431.088360	262.567005	178.564829	-445.423180	163.897887	227.846828	-503.908897	-129.150751	869.431060	-314.304761	32.813772	82.195167	-515.169270	32.883125	82.373114	-115.105855	
